<svg xmlns="http://www.w3.org/2000/svg" xmlns:xlink="http://www.w3.org/1999/xlink" width="60" zoomAndPan="magnify" viewBox="0 0 45 44.999999" height="60" preserveAspectRatio="xMidYMid meet" version="1.0"><defs><clipPath id="1ad56f92de"><path d="M 2.863281 1.554688 L 40.363281 1.554688 L 40.363281 42.054688 L 2.863281 42.054688 Z M 2.863281 1.554688 " clip-rule="nonzero"/></clipPath></defs><g clip-path="url(#1ad56f92de)"><path fill="#cc0000" d="M 40.363281 21.804688 L 36.613281 21.804688 L 36.613281 11.679688 L 26.613281 1.554688 L 6.613281 1.554688 L 6.613281 21.804688 L 2.863281 21.804688 L 2.863281 34.460938 L 6.613281 34.460938 L 6.613281 42.054688 L 36.613281 42.054688 L 36.613281 34.460938 L 40.363281 34.460938 L 40.363281 21.804688 " fill-opacity="1" fill-rule="nonzero"/></g><path fill="#ffffff" d="M 7.863281 40.789062 L 35.363281 40.789062 L 35.363281 34.460938 L 7.863281 34.460938 Z M 26.613281 3.347656 L 26.613281 11.679688 L 34.84375 11.679688 Z M 25.363281 12.945312 L 25.363281 2.820312 L 7.863281 2.820312 L 7.863281 21.804688 L 35.363281 21.804688 L 35.363281 12.945312 Z M 25.40625 27.957031 C 25.40625 26.617188 24.914062 25.679688 24.136719 25.09375 C 23.414062 24.542969 22.492188 24.285156 21.066406 24.285156 C 20.210938 24.285156 19.402344 24.34375 18.777344 24.441406 L 18.777344 31.894531 C 19.199219 31.953125 19.824219 32.007812 20.699219 32.007812 C 22.167969 32.007812 23.371094 31.691406 24.160156 31.027344 C 24.882812 30.410156 25.40625 29.40625 25.40625 27.957031 Z M 21.066406 30.667969 C 20.855469 30.667969 20.625 30.667969 20.480469 30.636719 L 20.480469 25.667969 C 20.625 25.636719 20.867188 25.601562 21.246094 25.601562 C 22.703125 25.601562 23.613281 26.433594 23.601562 28.011719 C 23.601562 29.824219 22.601562 30.679688 21.066406 30.667969 Z M 14.292969 29.25 C 15.292969 29.25 16.148438 29.003906 16.730469 28.449219 C 17.171875 28.023438 17.417969 27.390625 17.417969 26.648438 C 17.417969 25.90625 17.09375 25.277344 16.617188 24.894531 C 16.117188 24.488281 15.371094 24.285156 14.328125 24.285156 C 13.292969 24.285156 12.558594 24.351562 12.035156 24.441406 L 12.035156 31.929688 L 13.714844 31.929688 L 13.714844 29.214844 C 13.871094 29.238281 14.070312 29.25 14.292969 29.25 Z M 13.714844 25.648438 C 13.835938 25.613281 14.070312 25.582031 14.414062 25.582031 C 15.261719 25.582031 15.738281 25.996094 15.738281 26.695312 C 15.738281 27.472656 15.183594 27.933594 14.28125 27.933594 C 14.035156 27.933594 13.859375 27.921875 13.714844 27.886719 Z M 31.378906 25.75 L 31.378906 24.34375 L 26.796875 24.34375 L 26.796875 31.929688 L 28.5 31.929688 L 28.5 28.878906 L 31.191406 28.878906 L 31.191406 27.484375 L 28.5 27.484375 L 28.5 25.75 L 31.378906 25.75 " fill-opacity="1" fill-rule="nonzero"/></svg>